# xmcd CD database file
#
# Track frame offsets:
#	150
#	30113
#	53810
#	87945
#	109388
#	133681
#	155199
#
# Disc length: 2332 seconds
#
# Revision: 0
# Processed by: cddbd v1.5.1PL0 Copyright (c) Steve Scherf et al.
# Submitted via: CDex 1.51
#
DISCID=56091a07
DTITLE=Kjell Berglund - Ron Parry Quintet - Sweden revisited
DYEAR=1999
DGENRE=Jazz
TTITLE0=Hi fly
TTITLE1=What is this thing called love?
TTITLE2=Only child
TTITLE3=Straight street
TTITLE4=United
TTITLE5=You know I care
TTITLE6=It's you or no one
EXTD=YEAR: 1999
EXTT0=
EXTT1=
EXTT2=
EXTT3=
EXTT4=
EXTT5=
EXTT6=
PLAYORDER=
